<?xml version="1.0" encoding="UTF-8" standalone="no"?>
<!DOCTYPE svg PUBLIC "-//W3C//DTD SVG 1.1//EN" "http://www.w3.org/Graphics/SVG/1.1/DTD/svg11.dtd">
<!-- Created with Vectornator (http://vectornator.io/) -->
<svg height="100%" stroke-miterlimit="10" style="fill-rule:nonzero;clip-rule:evenodd;stroke-linecap:round;stroke-linejoin:round;" version="1.1" viewBox="0 0 400 400" width="100%" xml:space="preserve" xmlns="http://www.w3.org/2000/svg" xmlns:xlink="http://www.w3.org/1999/xlink">
<defs/>
<g id="レイヤー-2">
<path d="M0 0L400 0L400 400L0 400L0 0Z" fill="#e0f3f5" fill-rule="nonzero" opacity="1" stroke="none"/>
</g>
<clipPath id="ArtboardFrame">
<rect height="400" width="400" x="0" y="0"/>
</clipPath>
<g clip-path="url(#ArtboardFrame)" id="レイヤー-4">
<g opacity="1">
<path d="M434.265 30.7554L439.433 23.8646L434.265 16.9738L437.474 8.97858L430.698 3.65805L431.725-4.89506L423.802-8.28006L422.582-16.8073L414.055-18.0267L410.673-25.9471L402.12-24.9175L396.799-31.6933L388.804-28.4837L381.913-33.6547L375.023-28.4866L367.027-31.6961L361.707-24.9204L353.154-25.9471L349.769-18.0238L341.242-16.8073L340.022-8.28006L332.102-4.89506L333.131 3.65805L326.356 8.97858L329.565 16.9738L324.394 23.8646L329.562 30.7554L326.353 38.7505L333.128 44.0711L332.102 52.6242L340.025 56.0092L341.244 64.5364L349.772 65.7558L353.154 73.6762L361.707 72.6466L367.027 79.4224L375.023 76.2128L381.913 81.3838L388.804 76.2157L396.799 79.4253L402.12 72.6495L410.673 73.6762L414.058 65.7529L422.585 64.5335L423.805 56.0063L431.725 52.6242L430.695 44.0711L437.471 38.7505L434.265 30.7554Z" fill="#ff6f00" fill-rule="nonzero" opacity="1" stroke="none"/>
<path d="M381.913-25.0268C354.911-25.0268 333.022-3.13738 333.022 23.8646C333.022 50.8665 354.911 72.7559 381.913 72.7559C408.915 72.7559 430.805 50.8665 430.805 23.8646C430.805-3.13738 408.915-25.0268 381.913-25.0268Z" fill="#ffca28" fill-rule="nonzero" opacity="1" stroke="none"/>
<path d="M381.913-19.2749C358.088-19.2749 338.774 0.0393145 338.774 23.8646C338.774 47.6898 358.088 67.004 381.913 67.004C405.739 67.004 425.053 47.6898 425.053 23.8646C425.053 0.0393145 405.739-19.2749 381.913-19.2749Z" fill="#ffb300" fill-rule="nonzero" opacity="1" stroke="none"/>
</g>
</g>
<g id="レイヤー-1">
<g opacity="1">
<path d="M239.743 383.428C233.368 302.671 254.354 218.461 297.655 150.189L305.89 137.172C310.14 130.265 321.032 132.125 322.891 140.094L326.345 155.236C343.877 234.399 338.299 309.844 305.093 383.428L239.743 383.428" fill="#f8e390" fill-rule="nonzero" opacity="1" stroke="none"/>
<path d="M326.345 155.236L322.891 140.094C321.032 132.125 310.14 130.265 305.89 137.172L297.655 150.189C291.279 160.018 285.435 170.378 280.122 181.004C289.419 218.992 310.671 248.213 335.642 256.98C337.236 223.773 334.048 189.771 326.345 155.236" fill="#ffffff" fill-rule="nonzero" opacity="1" stroke="none"/>
<path d="M280.122 181.27C249.041 242.369 234.43 313.031 239.478 381.303L239.478 381.303L239.478 381.303L239.478 381.303L239.478 381.303L239.478 381.303L239.478 381.303L239.478 381.303L239.478 381.303L239.478 381.569L239.478 381.569L239.478 381.569L239.478 381.569L239.478 381.569L239.478 381.569L239.478 381.569L239.478 381.569L239.478 381.569L239.478 381.569C239.478 381.834 239.478 381.834 239.478 382.1L239.478 382.1L239.478 382.1L239.478 382.1L239.478 382.1L239.478 382.1L239.478 382.1L239.478 382.1L239.478 382.1L239.478 382.1L239.478 382.1L239.478 382.1L287.826 382.1C301.374 325.782 302.702 268.137 291.81 212.351C287.029 203.85 283.044 192.958 280.122 181.27" fill="#e0cd83" fill-rule="nonzero" opacity="1" stroke="none"/>
<path d="M282.778 176.222C281.981 177.816 280.919 179.676 280.122 181.27C283.044 192.958 287.029 203.85 292.076 213.679C289.685 200.928 286.497 188.442 282.778 176.222" fill="#e6e7e7" fill-rule="nonzero" opacity="1" stroke="none"/>
<path d="M241.868 390.866C238.149 390.866 234.962 388.475 234.165 384.756L233.368 381.303C233.368 380.772 233.102 380.506 233.102 379.975C226.461 297.092 246.65 216.07 291.013 145.673L298.717 133.187C301.905 128.14 307.484 124.952 313.593 124.952C321.829 124.952 329.001 130.797 330.861 138.766L334.048 153.111C352.909 237.853 346.268 311.437 313.328 384.225C313.062 384.756 312.797 385.022 312.531 385.553C311.203 387.413 309.077 390.601 304.827 390.601L241.868 390.866L241.868 390.866ZM313.593 141.157C312.797 141.157 312.531 141.688 312.265 141.954L304.561 154.439C262.589 220.851 243.462 296.827 248.775 375.193L300.311 375.193C330.595 306.656 336.439 237.322 318.641 157.096L315.453 142.751C315.187 141.423 314.125 141.157 313.593 141.157Z" fill="#454b54" fill-rule="nonzero" opacity="1" stroke="none"/>
<path d="M197.771 382.897L197.771 382.897C175.722 298.421 182.098 209.163 215.569 128.14L221.945 112.733C225.398 104.497 237.352 104.497 240.806 112.733L247.181 128.14C280.919 209.163 287.029 298.155 265.245 382.897L265.245 382.897L232.039 382.897L197.771 382.897Z" fill="#e4caa6" fill-rule="nonzero" opacity="1" stroke="none"/>
<path d="M197.771 382.897L197.771 382.897C175.722 298.421 182.098 209.163 215.569 128.14L221.945 112.733C225.398 104.497 237.352 104.497 240.806 112.733L247.181 128.14C280.919 209.163 287.029 298.155 265.245 382.897L265.245 382.897L232.039 382.897L197.771 382.897Z" fill="#8eaf99" fill-rule="nonzero" opacity="1" stroke="none"/>
<path d="M185.02 268.934L276.137 321.532C276.403 319.938 276.403 318.61 276.668 317.016L187.411 237.322C186.082 247.682 185.285 258.308 185.02 268.934ZM275.606 326.845L185.02 293.108C185.285 301.077 185.551 308.781 186.348 316.75L275.34 330.298C275.34 328.97 275.606 327.908 275.606 326.845ZM277.465 259.902C274.809 215.007 264.714 170.644 247.181 128.406L240.806 112.998C237.352 104.763 225.398 104.763 221.945 112.998L215.569 128.14C212.647 135.047 209.991 142.219 207.6 149.392C208.662 155.236 209.991 161.346 211.585 167.19C223.273 211.819 249.307 246.088 277.465 259.902Z" fill="#ffffff" fill-rule="nonzero" opacity="1" stroke="none"/>
<path d="M149.954 249.541C149.157 249.541 148.36 249.276 147.298 249.01C143.047 247.682 140.922 243.166 142.25 238.915C164.299 173.832 120.202 153.908 118.342 153.111C114.357 151.252 112.498 146.736 114.092 142.751C115.685 138.766 120.467 136.907 124.452 138.5C124.983 138.766 184.223 164.534 157.392 243.963C156.595 247.416 153.408 249.541 149.954 249.541Z" fill="#454b54" fill-rule="nonzero" opacity="1" stroke="none"/>
<path d="M52.7269 382.897C52.7269 382.897-21.389 256.714 94.9649 151.252C94.9649 151.252-18.9982 234.665 90.7146 383.162L52.7269 382.897Z" fill="#e4caa6" fill-rule="nonzero" opacity="1" stroke="none"/>
<path d="M305.093 375.459L275.34 375.459C294.998 291.514 288.091 205.178 254.62 125.218L248.244 109.81C245.322 103.169 238.946 98.6532 231.508 98.6532C224.07 98.6532 217.429 102.904 214.772 109.81L208.397 125.218C174.925 205.178 168.018 291.514 187.676 375.459L94.9649 375.459C53.2582 317.547 41.304 263.621 59.1024 215.273C64.4154 200.928 71.5879 189.239 78.4947 179.942C85.1359 172.238 92.3085 164.534 100.544 157.361C103.731 154.439 103.997 149.658 101.34 146.47C98.684 143.282 93.9023 142.485 90.4489 145.142C89.3863 145.939 76.9009 155.236 64.1497 172.769C24.8338 221.383 19.2552 271.59 22.443 307.453C25.0994 337.471 33.8658 361.379 39.9757 374.927L18.9895 374.927C14.4735 374.927 11.0201 378.381 11.0201 382.897C11.0201 387.413 14.4735 390.866 18.9895 390.866L52.7269 390.866C52.9925 390.866 52.9925 390.866 53.2582 390.866C53.5238 390.866 53.7895 390.866 54.0551 390.866C54.3207 390.866 54.5864 390.866 54.852 390.601C55.1177 390.601 55.3833 390.335 55.649 390.335C55.9146 390.335 56.1803 390.069 56.4459 390.069C56.7116 390.069 56.7116 390.069 56.9772 389.804C56.9772 389.804 56.9772 389.804 57.2429 389.538C57.5085 389.272 57.7742 389.272 58.0398 389.007C58.3055 388.741 58.3055 388.741 58.5711 388.475C58.8368 388.21 58.8368 388.21 59.1024 387.944C59.3681 387.678 59.3681 387.678 59.6337 387.413C59.8994 387.147 59.8994 386.882 59.8994 386.882C59.8994 386.616 60.165 386.35 60.165 386.085C60.165 385.819 60.4307 385.553 60.4307 385.288C60.4307 385.022 60.6963 384.756 60.6963 384.491C60.6963 384.225 60.6963 383.959 60.6963 383.694C60.6963 383.428 60.6963 383.162 60.6963 382.897L60.6963 382.631C60.6963 382.366 60.6963 382.366 60.6963 382.1C60.6963 381.834 60.6963 381.569 60.6963 381.303C60.6963 381.037 60.6963 380.772 60.4307 380.506C60.4307 380.24 60.165 379.975 60.165 379.709C60.165 379.443 59.8994 379.178 59.8994 378.912C59.8994 378.646 59.8994 378.646 59.6337 378.381C59.3681 378.115 41.8353 347.831 38.1162 305.328C37.5849 298.686 37.3193 292.045 37.3193 285.67C42.8979 318.61 58.5711 352.613 84.339 387.413C85.9329 389.538 88.3237 390.601 90.7146 390.601C90.9802 390.601 91.2459 390.601 91.5115 390.601C91.7772 390.601 92.0428 390.601 92.3085 390.601L304.827 390.601C309.343 390.601 312.797 387.147 312.797 382.631C312.797 378.115 309.609 375.459 305.093 375.459ZM259.136 374.927L240.009 374.927L240.009 236.525C240.009 232.009 236.555 228.555 232.039 228.555C227.523 228.555 224.07 232.009 224.07 236.525L224.07 374.927L203.881 374.927C183.957 293.373 190.598 209.163 223.007 131.328L229.383 115.92C229.914 114.858 230.977 114.592 231.508 114.592C232.039 114.592 233.102 114.858 233.633 115.92L240.009 131.328C272.418 209.163 279.059 293.373 259.136 374.927Z" fill="#454b54" fill-rule="nonzero" opacity="1" stroke="none"/>
<path d="M174.925 147.798C172.269 147.798 169.612 146.47 168.284 144.079C153.939 120.968 127.905 132.125 126.843 132.656C122.858 134.516 118.076 132.656 116.217 128.671C114.357 124.687 116.217 119.905 120.202 118.045C133.75 111.936 164.299 107.951 181.566 135.578C183.957 139.297 182.629 144.345 178.91 146.47C177.847 147.267 176.253 147.798 174.925 147.798ZM94.168 124.421C92.0428 124.421 89.9176 123.624 88.3237 122.03C87.5268 121.233 69.1971 102.638 41.0383 120.171C37.3193 122.562 32.2719 121.233 30.1468 117.514C28.0216 113.795 29.0842 108.748 32.8032 106.623C64.4154 87.2303 90.7146 101.044 100.278 111.404C103.2 114.592 103.2 119.639 99.7466 122.562C97.8871 123.89 96.0275 124.421 94.168 124.421ZM25.8964 185.786C25.3651 185.786 24.8338 185.786 24.3025 185.52C20.0521 184.723 17.13 180.473 17.9269 176.222C24.5681 141.423 55.3833 130 70.5253 128.937C75.0413 128.671 78.7604 131.859 79.026 136.375C79.2917 140.626 76.1039 144.61 71.5879 144.876C70.2596 144.876 39.4444 147.798 33.6002 179.145C33.0689 183.129 29.6155 185.786 25.8964 185.786Z" fill="#454b54" fill-rule="nonzero" opacity="1" stroke="none"/>
</g>
</g>
<g clip-path="url(#ArtboardFrame)" id="レイヤー-3" visibility="hidden">
<g opacity="1">
<path d="M349.171-18.2825L412.269-18.2825L412.269 44.8151L349.171 44.8151L349.171-18.2825Z" fill="#ff9800" fill-rule="nonzero" opacity="1" stroke="none"/>
<path d="M337.037 13.2671L380.719-30.4169L424.403 13.2655L380.721 56.9495L337.037 13.2671Z" fill="#ff9800" fill-rule="nonzero" opacity="1" stroke="none"/>
<path d="M354.025 13.2663C354.025 28.0141 365.972 39.9614 380.72 39.9614C395.465 39.9614 407.415 28.0141 407.415 13.2663C407.415-1.48154 395.465-13.4288 380.72-13.4288C365.972-13.4288 354.025-1.48154 354.025 13.2663" fill="#ffeb3b" fill-rule="nonzero" opacity="1" stroke="none"/>
</g>
</g>
</svg>
